<?xml version="1.0" standalone="no"?>
<!DOCTYPE svg PUBLIC "-//W3C//DTD SVG 20010904//EN"
 "http://www.w3.org/TR/2001/REC-SVG-20010904/DTD/svg10.dtd">
<svg version="1.0" xmlns="http://www.w3.org/2000/svg"
 width="512.000000pt" height="512.000000pt" viewBox="0 0 512.000000 512.000000"
 preserveAspectRatio="xMidYMid meet">

<g transform="translate(0.000000,512.000000) scale(0.100000,-0.100000)"
fill="#000000" stroke="none">
<path d="M1853 5109 c-78 -13 -178 -54 -253 -104 -90 -60 -198 -176 -243 -263
-33 -62 -40 -70 -79 -81 -136 -40 -285 -169 -351 -302 -43 -88 -67 -186 -67
-279 l0 -65 -48 -27 c-148 -84 -276 -259 -328 -449 -27 -99 -25 -274 4 -367
l23 -73 -65 -70 c-111 -117 -187 -307 -186 -466 1 -124 46 -292 104 -387 l23
-39 -43 -86 c-107 -212 -110 -421 -9 -626 25 -49 63 -112 86 -138 l42 -48 2
-122 c3 -162 39 -276 128 -407 122 -178 350 -309 539 -310 33 0 41 -5 69 -47
102 -152 276 -276 458 -325 110 -30 288 -30 394 0 195 55 371 186 470 349 18
29 34 52 37 52 3 0 19 -23 37 -52 99 -163 275 -294 470 -349 106 -30 284 -30
394 0 182 49 356 173 458 325 28 42 36 47 69 47 72 1 178 30 271 77 247 122
415 406 397 672 l-5 84 45 51 c24 28 64 92 89 141 101 205 98 414 -9 626 l-43
86 23 39 c58 95 103 263 104 387 1 159 -75 349 -186 466 l-65 70 23 73 c29 93
31 268 4 367 -52 190 -180 365 -328 449 l-48 27 0 65 c0 93 -24 191 -67 279
-66 132 -217 262 -351 302 -39 11 -46 19 -79 81 -46 87 -153 203 -245 264
-135 90 -304 129 -456 104 -185 -29 -366 -145 -467 -298 -15 -23 -31 -42 -35
-42 -4 0 -20 19 -35 42 -145 218 -418 339 -672 297z m208 -203 c131 -30 282
-155 340 -280 57 -123 59 -143 59 -598 0 -230 -2 -418 -4 -418 -2 0 -25 10
-52 22 -34 15 -70 22 -116 22 -61 1 -70 -2 -95 -27 -55 -54 -25 -147 51 -162
119 -22 181 -66 204 -143 9 -29 12 -293 12 -1002 l0 -963 -62 59 c-108 103
-242 170 -396 200 -117 22 -166 19 -202 -13 -20 -18 -33 -41 -37 -65 -5 -33
-2 -41 30 -73 31 -31 41 -35 84 -35 70 0 193 -34 266 -72 92 -49 205 -165 251
-258 64 -131 81 -267 50 -403 -54 -239 -224 -420 -449 -477 -138 -35 -268 -20
-403 47 -95 48 -193 142 -252 241 -23 40 -52 78 -63 84 -12 6 -66 12 -121 13
-119 2 -181 23 -268 88 -165 125 -246 310 -220 505 6 45 8 90 5 100 -4 9 -33
46 -65 81 -105 115 -156 250 -145 386 5 69 34 163 61 200 14 19 16 19 59 -13
123 -88 343 -146 420 -111 30 13 57 59 57 94 0 17 -12 39 -32 59 -28 28 -42
34 -98 39 -217 20 -399 183 -454 408 -49 198 26 400 193 523 82 61 85 83 27
223 -119 282 85 642 393 695 140 24 293 -28 402 -137 97 -97 144 -192 161
-325 6 -41 16 -89 23 -107 28 -64 137 -66 170 -3 19 36 19 88 1 184 -30 155
-95 274 -211 391 -138 138 -323 213 -497 202 -90 -6 -90 -7 -63 96 21 82 50
133 105 188 147 147 372 156 538 22 69 -56 121 -61 166 -16 40 40 36 92 -11
143 -47 53 -150 113 -240 142 -40 13 -73 27 -73 32 0 18 137 142 186 168 101
55 208 70 315 44z m1204 -1 c32 -9 81 -28 109 -43 49 -26 186 -150 186 -168 0
-5 -33 -19 -72 -32 -91 -29 -194 -89 -241 -142 -47 -51 -51 -103 -11 -143 45
-45 97 -40 166 16 166 134 391 125 538 -22 55 -55 84 -106 105 -188 27 -103
27 -102 -62 -96 -274 18 -556 -175 -670 -457 -27 -68 -53 -191 -53 -251 0 -86
60 -134 136 -109 43 15 58 46 72 150 17 133 64 228 161 325 109 109 262 161
402 137 308 -53 512 -413 393 -695 -58 -140 -55 -162 27 -223 167 -123 242
-325 193 -523 -57 -230 -268 -411 -480 -411 -45 0 -104 -54 -104 -95 0 -62 51
-105 126 -105 96 0 260 57 351 122 43 32 45 32 59 13 27 -37 56 -131 61 -200
11 -138 -40 -271 -149 -389 -68 -75 -66 -68 -53 -211 16 -179 -67 -355 -221
-469 -93 -69 -151 -89 -270 -91 -55 -1 -109 -7 -121 -13 -11 -6 -40 -44 -63
-84 -59 -99 -157 -193 -252 -241 -135 -67 -265 -82 -403 -47 -225 57 -395 238
-449 477 -31 136 -14 272 50 403 46 93 159 209 251 258 73 38 196 72 266 72
43 0 53 4 84 35 32 32 35 40 30 73 -4 24 -17 47 -37 64 -36 33 -85 36 -202 14
-154 -30 -288 -97 -395 -200 l-63 -59 0 963 c0 709 3 973 12 1002 23 77 85
121 204 143 76 15 106 108 51 162 -25 25 -34 28 -95 27 -46 0 -82 -7 -116 -22
-27 -12 -50 -22 -52 -22 -2 0 -4 188 -4 418 0 455 2 475 59 598 38 81 136 185
219 231 110 61 215 77 327 48z"/>
<path d="M1994 4256 c-24 -24 -34 -43 -34 -65 0 -43 45 -90 92 -98 33 -5 41
-2 73 30 47 47 48 86 1 133 -24 25 -43 34 -66 34 -23 0 -41 -9 -66 -34z"/>
<path d="M1124 3451 c-38 -16 -64 -60 -64 -108 0 -83 30 -196 77 -293 39 -80
59 -109 133 -182 73 -72 103 -94 181 -131 52 -25 110 -49 130 -52 63 -12 67
-18 39 -71 -44 -84 -160 -154 -257 -154 -22 0 -43 -9 -65 -29 -47 -41 -47
-101 0 -142 37 -33 64 -36 163 -15 179 38 326 174 379 352 12 40 13 41 84 57
143 33 317 142 331 208 14 61 -35 119 -99 119 -14 0 -60 -24 -103 -53 -91 -62
-161 -87 -258 -94 -281 -20 -535 215 -535 494 0 63 -79 118 -136 94z"/>
<path d="M1860 2024 c-201 -25 -390 -116 -533 -259 -98 -97 -157 -188 -157
-243 0 -58 35 -92 95 -92 46 0 67 17 123 100 47 71 160 171 237 211 97 51 154
68 274 84 118 16 147 34 157 97 5 29 1 41 -23 68 -26 29 -37 33 -84 35 -30 2
-70 1 -89 -1z"/>
<path d="M1124 1220 c-12 -4 -31 -21 -44 -37 -42 -54 -4 -137 69 -148 124 -19
163 -30 221 -62 143 -78 232 -194 275 -358 8 -32 15 -79 15 -103 0 -37 6 -50
34 -78 47 -47 86 -46 133 1 l36 36 -7 83 c-19 260 -176 491 -409 606 -117 57
-263 85 -323 60z"/>
<path d="M2994 4256 c-47 -47 -46 -86 1 -133 32 -32 40 -35 73 -30 47 8 92 55
92 98 0 43 -56 99 -100 99 -23 0 -41 -9 -66 -34z"/>
<path d="M3924 3451 c-40 -17 -61 -56 -67 -128 -12 -130 -59 -226 -152 -318
-183 -180 -440 -191 -664 -29 -27 18 -60 34 -75 34 -66 0 -115 -57 -101 -119
14 -66 188 -175 331 -208 71 -16 72 -17 84 -57 53 -178 200 -314 379 -352 99
-21 126 -18 163 15 27 24 33 36 33 71 0 35 -6 47 -33 71 -22 20 -43 29 -65 29
-97 0 -213 70 -257 154 -28 53 -24 59 39 71 20 3 78 27 130 52 78 37 108 59
181 131 74 73 94 102 133 182 48 97 77 210 77 294 0 36 -6 52 -27 76 -30 32
-75 45 -109 31z"/>
<path d="M3124 2021 c-39 -17 -66 -62 -60 -100 10 -62 39 -80 157 -96 120 -16
177 -33 274 -84 77 -40 190 -140 237 -211 56 -83 77 -100 123 -100 60 0 95 34
95 92 0 35 -9 57 -44 109 -120 178 -319 318 -524 369 -92 22 -229 33 -258 21z"/>
<path d="M3820 1215 c-84 -19 -213 -83 -284 -141 -155 -126 -257 -321 -272
-520 l-7 -83 36 -36 c47 -47 86 -48 133 -1 28 28 34 41 34 78 0 24 7 71 15
103 43 164 132 280 275 358 58 32 97 43 221 62 44 7 78 41 85 87 5 29 1 41
-23 68 -27 30 -37 34 -89 36 -32 2 -88 -3 -124 -11z"/>
</g>
</svg>
